<?xml version="1.0" encoding="UTF-8"?>
<svg width="2856px" height="3254px" viewBox="0 0 2856 3254" version="1.1" xmlns="http://www.w3.org/2000/svg">
    <!-- Generator: Sketch 55.2 (78181) - https://sketchapp.com -->
    <title>line_background</title>
    <desc>Created with Sketch.</desc>
    <defs>
        <linearGradient x1="0%" y1="6.73211549%" x2="100.698146%" y2="92.1649864%" id="linearGradient-1">
            <stop stop-color="#FEF356" stop-opacity="0" offset="0%"></stop>
            <stop stop-color="#FEF153" offset="6.38317896%"></stop>
            <stop stop-color="#FCE32F" offset="91.482035%"></stop>
            <stop stop-color="#FCE22B" stop-opacity="0" offset="100%"></stop>
        </linearGradient>
        <linearGradient x1="0%" y1="6.60237571%" x2="98.7408953%" y2="93.3976243%" id="linearGradient-2">
            <stop stop-color="#54ABFF" stop-opacity="0" offset="0%"></stop>
            <stop stop-color="#52A8FF" offset="5.86636906%"></stop>
            <stop stop-color="#2F79FE" offset="89.2621379%"></stop>
            <stop stop-color="#2A73FE" stop-opacity="0.0426955857" offset="100%"></stop>
        </linearGradient>
    </defs>
    <g id="Page-1" stroke="none" stroke-width="1" fill="none" fill-rule="evenodd">
        <g id="line_background" transform="translate(0.000000, 247.000000)">
            <path d="M0,0.886343127 C0,0.886343127 441.850272,0.62613346 450.990314,0.886343127 C585.367933,4.71196603 1646.98424,52.6488871 1854.64,614.84 C2076.42,1215.27 711.15,1442 727.51,1880.64 C756.09,2646 2855.78,2623.2 2855.78,2623.2" id="Path" stroke="url(#linearGradient-1)" opacity="0.54"></path>
            <path d="M5,186.399805 C5,186.399805 302.389078,180.810558 465.805845,186.399805 C629.222612,191.989053 1637.29342,248.715692 1837.58,800.08 C2055.69,1400.51 713,1627.27 729.09,2065.88 C757.21,2831.27 2822.18,2808.44 2822.18,2808.44" id="Path" stroke="url(#linearGradient-2)" opacity="0.69"></path>
        </g>
    </g>
</svg>
